<?xml version="1.0" standalone="no"?>
<!DOCTYPE svg PUBLIC "-//W3C//DTD SVG 20010904//EN"
 "http://www.w3.org/TR/2001/REC-SVG-20010904/DTD/svg10.dtd">
<svg version="1.0" xmlns="http://www.w3.org/2000/svg"
 width="300.000000pt" height="388.000000pt" viewBox="0 0 300.000000 388.000000"
 preserveAspectRatio="xMidYMid meet">
<metadata>
Created by potrace 1.10, written by Peter Selinger 2001-2011
</metadata>
<g transform="translate(0.000000,388.000000) scale(0.100000,-0.100000)"
fill="#000000" stroke="none">
<path d="M860 3310 c-97 -16 -303 -85 -535 -177 l-120 -48 0 -38 c0 -20 4 -37
10 -37 5 0 3 -5 -5 -10 -11 -7 -11 -10 -2 -10 7 0 11 -4 8 -9 -3 -5 4 -11 17
-15 36 -9 41 -7 24 12 -21 23 -31 72 -18 91 5 8 17 15 28 16 10 1 34 9 53 17
139 61 432 162 500 173 102 16 108 16 130 -15 11 -15 23 -42 26 -59 4 -17 9
-29 13 -27 8 5 10 -7 17 -101 5 -58 3 -73 -8 -73 -18 0 -28 -91 -17 -156 4
-25 17 -23 109 18 76 35 170 69 170 62 0 -21 -63 -122 -82 -131 -12 -6 -62
-30 -110 -53 -83 -39 -107 -63 -75 -76 7 -2 45 9 85 25 40 16 72 29 72 27 0
-7 -61 -123 -72 -137 -18 -22 -107 -62 -123 -55 -11 4 -13 57 -13 256 1 201
-2 254 -13 265 -16 15 -306 25 -346 11 -13 -4 -30 -3 -39 2 -14 8 -9 12 27 26
39 14 40 15 9 10 -19 -4 -41 -10 -50 -14 -8 -5 -59 -26 -114 -48 -88 -35 -95
-40 -70 -46 22 -6 25 -9 13 -17 -28 -17 7 -9 69 18 62 26 63 27 40 40 l-23 14
23 -4 c12 -3 20 -1 17 3 -7 12 28 22 49 14 13 -5 16 -25 17 -128 1 -66 0 -136
-1 -153 -1 -20 3 -33 10 -33 9 0 9 -4 -1 -16 -7 -9 -12 -32 -10 -52 2 -21 4
-70 5 -111 1 -48 5 -76 13 -78 9 -3 12 61 10 276 l-2 281 173 0 172 0 0 -272
0 -273 75 -3 c67 -2 75 -1 85 19 7 11 9 23 7 26 -3 2 11 32 30 66 19 34 48 87
64 118 28 56 28 57 6 53 -16 -3 -15 -1 5 7 19 7 41 37 77 102 69 125 80 137
131 137 22 0 60 5 83 10 23 6 86 10 139 8 l97 -3 -189 -334 -189 -335 16 -30
c9 -17 99 -181 200 -364 100 -183 183 -333 183 -335 0 -1 -86 -2 -192 -1
l-191 1 -48 91 c-27 50 -50 88 -53 84 -11 -18 -8 -99 4 -127 8 -16 13 -42 12
-57 0 -16 4 -28 9 -28 5 0 9 -11 9 -25 0 -15 14 -39 36 -61 l35 -37 132 6
c142 6 204 20 482 103 283 85 525 167 519 175 -3 5 -1 16 4 25 11 19 -7 116
-19 108 -19 -11 -59 -14 -59 -4 0 5 7 10 16 10 8 0 12 5 8 11 -4 8 1 9 17 4
13 -3 20 -3 14 2 -5 4 -12 19 -13 33 -2 14 -8 29 -13 35 -5 5 -9 18 -9 29 0
10 -3 17 -6 13 -4 -3 -12 0 -20 7 -11 12 -35 7 -146 -30 -132 -44 -404 -128
-506 -157 -49 -14 -53 -14 -62 3 -8 14 12 31 128 107 75 50 152 99 170 109 45
26 57 71 38 152 -7 29 -16 37 -39 33 -5 -1 -6 3 -2 9 3 6 11 8 16 4 6 -3 7 5
3 22 -4 16 -7 34 -7 41 0 7 -6 14 -14 17 -7 3 -13 10 -13 16 0 28 -31 43 -76
36 -35 -4 -327 -97 -415 -131 -11 -4 -23 8 -43 45 l-27 50 28 24 c94 79 301
237 443 337 309 220 298 209 292 279 -1 8 -3 30 -4 47 -2 19 -9 33 -16 33 -8
0 -11 9 -8 25 3 14 1 25 -4 25 -5 0 -7 9 -5 19 2 11 -3 22 -11 25 -8 3 -14 11
-14 17 0 21 -40 47 -63 42 -65 -15 -311 -92 -440 -139 -116 -43 -160 -54 -207
-54 -51 0 -61 -3 -71 -22 -6 -13 -13 -24 -14 -26 -2 -2 -113 -51 -312 -139
-20 -8 -17 97 3 125 9 13 16 45 17 75 1 58 -34 199 -52 205 -6 2 -11 10 -11
17 0 15 -38 46 -55 44 -5 -1 -30 -5 -55 -9z m1238 -127 c27 -39 31 -55 19 -77
-8 -16 -6 -18 7 -13 10 4 15 3 11 -3 -3 -6 1 -20 9 -32 24 -34 20 -91 -8 -125
-13 -16 -73 -62 -133 -103 -133 -90 -307 -220 -432 -320 -51 -41 -104 -81
-117 -88 -13 -7 -31 -24 -40 -37 -14 -21 -13 -27 6 -73 27 -62 55 -91 72 -74
7 7 22 12 33 12 12 0 25 3 29 8 4 4 11 7 14 8 4 0 14 4 22 7 67 28 265 88 306
93 47 6 51 5 69 -22 10 -16 18 -42 18 -59 0 -16 8 -41 19 -54 20 -26 24 -91 8
-122 -6 -10 -25 -26 -43 -35 -46 -24 -227 -145 -256 -171 -14 -12 -28 -20 -33
-17 -4 3 -8 -2 -8 -11 0 -24 41 -79 49 -66 4 5 23 11 44 13 20 1 37 5 37 8 0
3 24 12 53 20 69 17 207 60 392 121 l150 50 22 -28 c13 -15 23 -33 23 -38 0
-20 -31 -55 -49 -55 -28 0 -33 -12 -11 -27 13 -9 31 -12 49 -8 33 7 37 3 45
-47 5 -31 2 -39 -16 -49 -17 -9 -178 -65 -213 -73 -5 -2 -23 -8 -38 -14 -16
-7 -31 -12 -35 -12 -4 0 -43 -12 -87 -26 -44 -14 -93 -30 -110 -34 -16 -5 -84
-24 -150 -43 -174 -50 -210 -56 -346 -58 l-123 -1 -23 29 c-16 18 -23 40 -22
63 1 50 -2 59 -12 30 -8 -23 -8 -22 -4 6 2 17 0 35 -4 40 -11 11 -23 64 -16
64 4 0 15 -21 26 -46 38 -85 36 -84 231 -84 104 0 184 5 203 11 l32 12 -79
146 c-82 151 -98 180 -214 391 -38 69 -78 141 -88 161 l-19 36 98 174 c54 96
127 226 163 289 36 63 74 132 85 153 12 20 24 37 28 37 5 0 -2 10 -14 23 -17
17 -31 21 -61 18 -76 -7 -26 18 152 74 97 31 188 61 202 65 43 14 58 11 78
-17z m-1643 -159 c24 -10 -62 -46 -89 -38 -17 6 -13 9 24 25 25 10 46 18 47
18 1 1 9 -2 18 -5z m722 -262 c8 -5 -21 -22 -79 -48 -102 -44 -120 -50 -98
-35 13 10 13 11 0 11 -12 0 143 77 160 79 3 0 11 -3 17 -7z m-107 -242 c-7
-13 -21 -20 -40 -20 -39 0 -38 8 3 25 44 19 50 18 37 -5z m1345 -640 c3 -5 -1
-10 -9 -10 -8 0 -18 5 -21 10 -3 6 1 10 9 10 8 0 18 -4 21 -10z"/>
<path d="M1795 2830 c-4 -6 -12 -7 -18 -3 -8 5 -8 2 0 -9 7 -8 10 -18 6 -21
-3 -4 -1 -7 6 -7 7 0 11 6 8 14 -3 7 0 19 6 25 6 6 8 11 5 11 -4 0 -10 -5 -13
-10z"/>
<path d="M1731 2801 c-26 -20 -35 -47 -19 -57 15 -10 60 37 48 51 -5 7 -7 15
-3 18 13 14 -3 6 -26 -12z m24 -22 c-4 -5 -14 -13 -25 -19 -14 -8 -18 -6 -16
6 3 18 26 35 38 28 5 -3 6 -10 3 -15z"/>
<path d="M1672 2728 c2 -7 -6 -13 -17 -13 -11 -1 -19 -6 -18 -12 3 -13 -25
-38 -33 -30 -3 3 0 15 6 27 8 15 8 20 1 16 -6 -4 -17 -20 -25 -35 -13 -24 -13
-27 3 -28 25 -2 108 71 93 81 -8 5 -11 2 -10 -6z"/>
<path d="M1570 2061 c0 -6 4 -13 10 -16 6 -3 7 1 4 9 -7 18 -14 21 -14 7z"/>
<path d="M2298 1833 c7 -3 16 -2 19 1 4 3 -2 6 -13 5 -11 0 -14 -3 -6 -6z"/>
<path d="M2156 1821 c-4 -5 3 -7 14 -4 23 6 26 13 6 13 -8 0 -17 -4 -20 -9z"/>
<path d="M2020 1780 c-13 -9 -13 -10 0 -9 8 0 24 4 35 9 20 9 20 9 0 9 -11 0
-27 -4 -35 -9z"/>
<path d="M1940 1755 c-19 -7 -28 -13 -20 -13 8 0 31 6 50 13 19 7 28 13 20 13
-8 0 -31 -6 -50 -13z"/>
<path d="M2025 1750 c-13 -5 -14 -9 -5 -9 8 0 24 4 35 9 13 5 14 9 5 9 -8 0
-24 -4 -35 -9z"/>
<path d="M1840 1728 c-19 -5 -39 -14 -45 -19 -5 -5 15 -2 45 7 30 9 57 18 59
20 7 7 -22 3 -59 -8z"/>
<path d="M1910 1714 l-35 -14 35 6 c40 7 76 24 50 23 -8 0 -31 -7 -50 -15z"/>
<path d="M1770 1691 c11 -22 30 -37 30 -24 -1 11 -26 43 -34 43 -4 0 -2 -9 4
-19z"/>
<path d="M1825 1690 c-13 -5 -14 -9 -5 -9 8 0 24 4 35 9 13 5 14 9 5 9 -8 0
-24 -4 -35 -9z"/>
<path d="M1790 1640 c-13 -8 -12 -10 3 -10 9 0 17 5 17 10 0 12 -1 12 -20 0z"/>
<path d="M750 3143 c-8 -2 -21 -7 -29 -9 -8 -2 -12 -7 -9 -9 3 -3 22 1 44 9
35 13 30 21 -6 9z"/>
<path d="M660 3120 c-9 -6 -10 -10 -3 -10 6 0 15 5 18 10 8 12 4 12 -15 0z"/>
<path d="M770 3120 c0 -5 7 -7 15 -4 8 4 15 8 15 10 0 2 -7 4 -15 4 -8 0 -15
-4 -15 -10z"/>
<path d="M725 3100 c-13 -6 -15 -9 -5 -9 8 0 22 4 30 9 18 12 2 12 -25 0z"/>
<path d="M513 3044 c4 -4 1 -14 -6 -23 -11 -14 -10 -15 8 -1 11 8 21 15 23 16
2 1 -5 5 -15 8 -9 4 -14 4 -10 0z"/>
<path d="M970 3020 c20 -13 33 -13 25 0 -3 6 -14 10 -23 10 -15 0 -15 -2 -2
-10z"/>
<path d="M235 2950 c3 -6 1 -10 -6 -10 -7 0 -10 -3 -6 -6 3 -3 13 -2 22 4 16
8 16 9 1 15 -10 4 -15 3 -11 -3z"/>
<path d="M248 2924 c-29 -15 -39 -30 -14 -21 14 6 16 -9 4 -29 -4 -6 2 -17 13
-24 10 -8 19 -20 19 -28 0 -7 5 -10 12 -6 8 5 9 2 5 -9 -5 -14 -2 -16 21 -11
65 16 208 81 199 91 -6 5 -114 -32 -156 -53 -41 -21 -77 6 -79 58 0 21 5 32
21 38 21 8 21 9 2 9 -11 0 -32 -7 -47 -15z"/>
<path d="M493 2855 c-46 -32 -327 -373 -355 -430 -17 -35 -15 -125 3 -136 7
-4 9 -14 6 -23 -4 -10 -1 -16 8 -16 8 0 15 5 15 10 0 6 5 10 10 10 18 0 11
-18 -10 -25 -11 -3 -20 -11 -20 -16 0 -6 5 -7 11 -3 8 4 9 0 4 -15 -8 -25 3
-64 16 -56 5 4 9 1 9 -5 0 -6 6 -18 14 -25 11 -11 26 -6 97 37 46 28 128 72
182 99 l97 49 0 80 c0 44 -2 80 -5 80 -12 0 -104 -50 -110 -60 -9 -15 1 -12
45 10 l40 20 0 -59 0 -60 -110 -56 c-60 -30 -126 -66 -146 -80 -19 -13 -45
-27 -55 -30 -31 -10 -50 22 -46 72 4 34 0 46 -19 64 -37 35 -33 101 10 164 36
53 181 229 280 339 58 66 69 89 29 61z"/>
<path d="M519 2713 c-13 -16 -12 -17 4 -4 16 13 21 21 13 21 -2 0 -10 -8 -17
-17z"/>
<path d="M513 2480 c-21 -9 -63 -45 -63 -55 0 -3 25 7 54 22 30 15 53 30 50
35 -6 10 -12 9 -41 -2z"/>
<path d="M576 2285 c-3 -8 -5 -96 -5 -194 l0 -180 -59 -74 c-92 -116 -162
-244 -162 -298 0 -66 2 -78 15 -83 8 -3 11 -17 9 -36 -3 -28 -2 -31 11 -20 14
11 14 10 5 -14 -13 -36 -13 -49 2 -40 8 5 9 2 5 -10 -4 -10 -3 -15 3 -11 6 3
10 1 10 -5 0 -6 7 -18 15 -27 14 -13 23 -8 84 50 38 36 123 103 189 150 185
131 195 137 252 137 50 0 50 0 50 33 0 33 3 35 129 100 l129 67 -35 66 -35 65
-95 -51 c-52 -28 -97 -49 -99 -47 -3 2 16 15 40 28 25 13 42 27 40 31 -3 4 2
5 11 2 10 -4 15 -2 13 6 -2 7 4 15 12 17 13 4 13 3 0 -6 -19 -13 0 -14 20 -1
13 9 13 10 0 10 -13 0 -13 1 0 10 8 5 23 7 33 4 25 -8 22 1 -45 133 -62 121
-74 128 -112 75 l-19 -27 24 22 c19 17 26 19 36 8 18 -20 93 -171 93 -187 0
-9 -14 -21 -30 -28 -17 -7 -37 -22 -45 -34 -8 -11 -15 -17 -15 -13 0 4 -9 -1
-20 -11 -12 -9 -26 -17 -32 -17 -18 0 -21 -24 -4 -31 9 -3 43 9 78 29 99 54
104 55 128 8 26 -52 26 -54 -11 -70 -68 -30 -209 -113 -210 -124 -1 -7 -1 -17
0 -23 1 -7 -5 -14 -13 -17 -23 -9 -27 30 -25 285 l1 240 24 -5 c13 -2 29 1 34
8 8 10 0 14 -35 17 l-45 3 0 -282 0 -283 -132 -1 c-73 -1 -151 -2 -173 -3 -23
0 -39 3 -38 10 5 29 15 654 11 654 -3 0 -8 -7 -12 -15z m-1 -661 c20 -13 45
-15 125 -13 61 3 101 0 102 -6 1 -5 -27 -29 -63 -53 -103 -70 -170 -122 -231
-181 -56 -53 -58 -54 -77 -37 -16 14 -20 28 -17 62 3 39 1 43 -12 32 -13 -11
-15 -10 -9 4 3 9 -1 31 -9 48 -28 54 -5 120 90 265 72 111 71 111 74 -4 3 -95
4 -102 27 -117z"/>
<path d="M981 1824 c0 -11 3 -14 6 -6 3 7 2 16 -1 19 -3 4 -6 -2 -5 -13z"/>
</g>
</svg>
